<svg width="29" height="18" viewBox="0 0 29 18" fill="none" xmlns="http://www.w3.org/2000/svg">
<path d="M1.5944 10.523L22.6403 10.523L18.0166 15.1467C17.3788 15.7845 17.3788 16.7411 18.0166 17.3789C18.6543 18.0166 19.611 18.0166 20.2487 17.3789L27.5829 10.0447C28.2207 9.40692 28.2207 8.45029 27.5829 7.81253L20.2487 0.478349C19.611 -0.159405 18.6543 -0.159406 18.0166 0.478349C17.3788 1.11611 17.3788 2.07274 18.0166 2.71049L22.6403 7.33422L1.5944 7.33422C0.7972 7.33422 6.58624e-06 7.97197 6.50261e-06 8.9286C6.41898e-06 9.88524 0.7972 10.523 1.5944 10.523Z" fill="#458FF6"/>
</svg>
